<?xml version="1.0" encoding="UTF-8"?>
<svg width="197px" height="78px" viewBox="0 0 197 78" version="1.1" xmlns="http://www.w3.org/2000/svg" xmlns:xlink="http://www.w3.org/1999/xlink">
    <!-- Generator: Sketch 41.2 (35397) - http://www.bohemiancoding.com/sketch -->
    <title>pink</title>
    <desc>Created with Sketch.</desc>
    <defs></defs>
    <g id="Page-1" stroke="none" stroke-width="1" fill="none" fill-rule="evenodd">
        <g id="pink">
            <rect id="Rectangle" fill="#FFFFFF" x="0" y="0" width="197" height="78"></rect>
            <path d="M30.92,10.89 C36.01,7.54 44.1,5.87 48.85,10.67 C47.57,15.24 45.84,19.65 44.18,24.09 C41.32,33.7 41.47,44.14 44.27,53.75 C45.34,57.55 47.62,61.03 47.97,65.02 C48.37,67.25 45.92,68.58 44.04,67.72 C38.2,66.03 35.23,59.96 33.22,54.7 C31.49,50.93 30.45,46.9 30.26,42.74 C28.11,46.36 27.54,50.71 25.21,54.22 C23.6,56.17 20.99,55.15 19.66,53.45 C17.46,50.7 16.1,47.39 13.91,44.63 C13.19,50.21 14.51,55.69 15.42,61.16 C14.61,64.02 10.7,62.22 9.57,60.47 C3.37,51.76 2.06,40.53 2.6,30.11 C-0.2,26.34 0.33,20.04 4.28,17.15 C7.2,14.41 12.33,13.77 15.38,16.58 C18.4,21.85 20.55,27.58 23.53,32.88 C25.1,25.34 26.22,17.23 30.92,10.89 Z" id="Shape" fill="#FF008A"></path>
            <path d="M122.872641,11.82 C121.572641,8.26 127.372641,8.1 128.852641,10.45 C139.892641,23.85 140.852641,42.7 137.352641,59.05 C136.732641,62.35 133.992641,64.83 130.802641,65.59 C127.082641,66.57 122.232641,67.52 119.352641,64.24 C125.832641,55.59 127.382641,44.5 127.372641,33.98 C127.262641,26.38 125.382641,18.95 122.872641,11.82 Z" id="Shape" fill="#FF008A"></path>
            <path d="M158.450576,26.49 C160.070576,23.78 161.890576,19.84 165.660576,20.13 C168.420576,19.84 171.050576,22.23 170.720576,25.05 C170.270576,27.94 167.670576,29.69 165.640576,31.47 C164.200576,29.93 163.350576,26.29 160.610576,27.71 C161.590576,35.63 166.420576,42.83 166.070576,51 C165.010576,55.54 159.530576,56.17 155.700576,56.91 C154.850576,52.77 155.490576,48.53 155.130576,44.35 C154.500576,37.73 153.310576,31.13 150.930576,24.89 C149.870576,23.04 152.190576,22.37 153.600576,22.49 C155.990576,22.54 157.070576,24.94 158.450576,26.49 Z" id="Shape" fill="#FF008A"></path>
            <g id="Group-2" transform="translate(136.410281, 12.000000)" fill="#FF008A">
                <path d="M1.32,1.55 C3.59,-0.37 7.88,0.79 8.15,3.95 C8.77,7.38 4.02,8.88 1.53,7.47 C-0.04,6.05 -0.38,2.99 1.32,1.55 Z" id="Shape"></path>
                <path d="M3.98,13.02 C4.54,10.88 7.32,10.63 8.71,12.09 C11.43,14.75 13.19,18.26 14.09,21.94 C16.18,29.71 17.51,38.15 14.94,45.96 C11.88,46.83 8.41,49.38 5.31,47.49 C5.24,46.03 5.49,44.58 5.69,43.15 C7.31,33.1 5.48,22.96 3.98,13.02 Z" id="Shape"></path>
            </g>
            <g id="Group-3" transform="translate(168.000000, 24.000000)">
                <path d="M8.31,2.31 C13.07,-0.05 19.93,-1.39 23.95,3.01 C26.63,5.82 25.06,10.24 22.56,12.6 C20.04,15.19 16.35,15.86 13.03,16.8 C14.63,17.5 16.14,18.75 18,18.54 C21.81,18.31 24.84,15.67 28,13.82 L28,16.29 C23.65,21.15 17.62,24.86 10.99,25.25 C7.06,25.46 2.67,23.63 1.11,19.79 C-1.86,13.27 1.97,5.16 8.31,2.31 Z" id="Shape" fill="#FF008A"></path>
                <path d="M15.23,5.26 C17.31,3.9 20.72,6.12 19.57,8.59 C18.76,11.22 14.5,13.17 12.58,10.6 C10.5,8.54 13.34,6.08 15.23,5.26 Z" id="Shape" fill="#FFFFFF"></path>
            </g>
            <g id="Group" transform="translate(46.101320, 1.000000)">
                <path d="M36.51,0 L42.35,0 C50.49,1.45 58.58,4.56 64.54,10.48 C75.12,20.44 78.55,37.07 73.49,50.57 C68.59,64.25 55,73.75 40.71,75 L33.67,75 C26.73,73.72 19.88,71.14 14.44,66.55 C7.68,61.16 3.28,53.23 1.41,44.87 C-0.96,34.36 1.74,22.86 8.44,14.45 C15.1,5.79 26.01,1.54 36.51,0 Z" id="Shape" fill="#FF008A"></path>
                <path d="M30.38,3.42 C47.33,-1.22 66.71,9.13 71.88,25.99 C74.12,35.37 74.54,45.86 69.37,54.39 C61.53,69.02 42.7,76.49 26.97,71.06 C14.92,67.26 5.78,56.32 3.39,44.02 C2.14,35.95 2.85,27.28 7.19,20.19 C11.8,11.29 20.93,5.87 30.38,3.42 Z" id="Shape" fill="#FFFFFF"></path>
                <path d="M25.31,7.3 C34.84,2.03 47.02,4.27 55.95,9.92 C48.28,11.97 41.1,15.77 35.32,21.25 C32.01,24.06 29.54,27.71 26.23,30.51 C24.44,30.31 24.75,28.12 24.23,26.87 C23.21,20.45 22.61,13.38 25.31,7.3 Z" id="Shape" fill-opacity="0.303470335" fill="#000000"></path>
                <path d="M5.76,29.07 C7.73,20.56 13.66,13.35 21.08,8.92 C20.18,15.9 19.78,23.17 21.85,29.99 C23.22,34.72 24.61,39.45 25.9,44.21 C19.51,42.11 13.03,39.59 7.89,35.13 C6.05,33.74 5.17,31.31 5.76,29.07 Z" id="Shape" fill-opacity="0.303470335" fill="#000000"></path>
                <path d="M36.88,24.15 C42.55,17.65 50.68,13.44 59.19,12.19 C67.41,18.54 71.56,29.05 71.32,39.28 C63.74,31.69 53.42,27.23 42.87,25.81 C40.81,25.52 38.83,24.84 36.88,24.15 Z" id="Shape" fill-opacity="0.303470335" fill="#000000"></path>
                <path d="M32.49,32.11 C33.4,27.76 38.82,27.9 41.8,30.05 C43.77,31.58 43.89,34.23 44.45,36.45 C40.98,33.74 37.05,31.66 32.49,32.11 Z" id="Shape" fill="#FF008A"></path>
                <path d="M48.54,29.89 C56.25,32.04 63.9,35.69 69.25,41.81 C70.59,43.17 70.88,45.17 70.19,46.93 C67.23,55.64 61,63.33 52.68,67.43 C54.39,60.91 55.2,53.98 53.4,47.38 C51.79,41.55 50.47,35.63 48.54,29.89 Z" id="Shape" fill-opacity="0.303470335" fill="#000000"></path>
                <path d="M4.68,37.65 C7.53,39.7 10.27,41.95 13.44,43.49 C21.28,46.98 29.85,48.37 37.73,51.7 C33.39,55.26 29.1,59.05 23.97,61.46 C20.22,63.11 15.42,62.56 12.65,59.36 C7.01,53.68 5.08,45.41 4.68,37.65 Z" id="Shape" fill-opacity="0.303470335" fill="#000000"></path>
                <path d="M44.19,38.28 C45.78,37.83 46.77,40.55 45.36,41.34 C43.36,43.3 41.36,38.61 44.19,38.28 Z" id="Shape" fill="#FF008A"></path>
                <path d="M34.98,57.9 C40.1,53.26 44.66,48.06 49.63,43.28 C50.94,49.75 52.19,56.47 51,63.06 C50.46,66.57 47.56,69.66 44.06,70.35 C36.24,71.7 27.97,70.53 21.09,66.48 C21.15,66.33 21.27,66.04 21.34,65.9 C26.12,63.68 31.01,61.46 34.98,57.9 Z" id="Shape" fill-opacity="0.303470335" fill="#000000"></path>
            </g>
        </g>
    </g>
</svg>